<?xml version="1.0" encoding="UTF-8" standalone="no"?>
<svg
   xmlns:dc="http://purl.org/dc/elements/1.1/"
   xmlns:cc="http://creativecommons.org/ns#"
   xmlns:rdf="http://www.w3.org/1999/02/22-rdf-syntax-ns#"
   xmlns:svg="http://www.w3.org/2000/svg"
   xmlns="http://www.w3.org/2000/svg"
   xmlns:sodipodi="http://sodipodi.sourceforge.net/DTD/sodipodi-0.dtd"
   xmlns:inkscape="http://www.inkscape.org/namespaces/inkscape"
   height="2048"
   width="2048"
   viewBox="0 0 2048 2048"
   version="1.1"
   id="svg4"
   sodipodi:docname="logo.svg"
   inkscape:version="1.0 (4035a4fb49, 2020-05-01)">
  <metadata
     id="metadata10">
    <rdf:RDF>
      <cc:Work
         rdf:about="">
        <dc:format>image/svg+xml</dc:format>
        <dc:type
           rdf:resource="http://purl.org/dc/dcmitype/StillImage" />
        <dc:title></dc:title>
      </cc:Work>
    </rdf:RDF>
  </metadata>
  <defs
     id="defs8" />
  <sodipodi:namedview
     pagecolor="#000000"
     bordercolor="#666666"
     borderopacity="1"
     objecttolerance="10"
     gridtolerance="10"
     guidetolerance="10"
     id="namedview6"
     showgrid="false"
     inkscape:document-rotation="0"
     inkscape:zoom="0.10241699"
     inkscape:cx="-688.3434"
     inkscape:cy="1290.1447"
     inkscape:window-width="1310"
     inkscape:window-height="740"
     inkscape:window-x="1970"
     inkscape:window-y="312"
     inkscape:window-maximized="1"
     inkscape:current-layer="svg4" />
  <path
     sodipodi:nodetypes="cssscccssscc"
     style="fill:#8c302c;stroke-width:2.41038;fill-opacity:1"
     id="path2-3-3"
     d="M 2086.4474,1595.3277 1226.7788,783.8626 c -64.0824,-60.4892 -89.833,-34.55421 -168.9333,-34.55421 -158.20066,0 -212.52746,-43.98944 -212.52746,111.83386 0,54.5494 -66.60562,125.57083 -36.66705,171.21885 23.36652,35.6295 55.19723,135.5702 91.55,157.6311 l -5.28265,104.6642 -136.8456,-15.7295 c -26.65194,-3.0635 -57.07276,-6.1952 -57.07276,20.229 0,13.2122 5.50243,25.1069 14.22671,33.8312 663.40551,663.4055 110.02167,109.7988 740.12111,739.8983 764.7091,175.1285 815.297,-196.8835 631.0996,-477.5577 z" />
  <path
     d="m 1298.4261,1251.3119 h -124.0045 v -27.0439 c 36.3552,-22.0609 67.3575,-51.8916 90.724,-87.5211 29.9362,-45.6456 45.7616,-98.6066 45.7616,-153.156 0,-77.91046 -32.1766,-148.55819 -84.1283,-199.7283 C 1174.8272,732.69249 1103.1004,701 1024.0001,701 865.79945,701 737.09539,827.76998 737.09539,983.59329 c 0,54.54941 15.82541,107.50801 45.76398,153.15601 23.36652,35.6295 54.37129,65.4578 90.72406,87.5187 v 27.0439 H 749.57405 c -26.82742,0 -48.57399,21.4198 -48.57399,47.844 0,13.2122 5.43664,25.1732 14.22671,33.8312 8.79007,8.658 20.93357,14.0129 34.34728,14.0129 h 172.58337 c 26.8274,0 48.57398,-21.4198 48.57398,-47.8441 V 1195.875 c 0,-18.4965 -10.82228,-35.3329 -27.79403,-43.2439 -66.02905,-30.7828 -108.69401,-97.133 -108.69401,-169.03781 0,-103.05849 85.12348,-186.9052 189.75674,-186.9052 104.6332,0 189.7591,83.84671 189.7591,186.9052 0,71.90241 -42.6649,138.25501 -108.694,169.03781 -16.9693,7.9134 -27.7916,24.7498 -27.7916,43.2439 v 103.2809 c 0,26.4243 21.7466,47.8441 48.574,47.8441 h 172.5785 c 26.8274,0 48.574,-21.4198 48.574,-47.8441 0,-26.4242 -21.7466,-47.844 -48.574,-47.844 z"
     id="path2-3"
     style="fill:#ffffff;stroke-width:2.41038"
     sodipodi:nodetypes="scccsssscccssssssscssscssssss" />
</svg>
