<?xml version="1.0" encoding="UTF-8" standalone="no"?>
<svg
   xmlns:rdf="http://www.w3.org/1999/02/22-rdf-syntax-ns#"
   xmlns:svg="http://www.w3.org/2000/svg"
   xmlns="http://www.w3.org/2000/svg"
   viewBox="0 0 1024 1024"
   version="1.1"
   id="svg4">
  <metadata
     id="metadata10">
    <rdf:RDF>
      <cc:Work
         rdf:about="">
        <dc:format>image/svg+xml</dc:format>
        <dc:type
           rdf:resource="http://purl.org/dc/dcmitype/StillImage" />
        <dc:title></dc:title>
      </cc:Work>
    </rdf:RDF>
  </metadata>
  <defs
     id="defs8" />
  <sodipodi:namedview
     pagecolor="#000000"
     bordercolor="#666666"
     borderopacity="1"
     objecttolerance="10"
     gridtolerance="10"
     guidetolerance="10"
     id="namedview6"
     showgrid="false"/>
  <path
     d="M 786.42601,739.31189 H 662.42149 v -27.04386 c 36.3552,-22.06089 67.35755,-51.89166 90.72406,-87.52113 C 783.0817,579.10128 798.9071,526.1403 798.9071,471.5909 798.9071,315.76998 670.20061,189 512,189 353.79939,189 225.09533,315.76998 225.09533,471.59329 c 0,54.5494 15.82541,107.50799 45.76398,153.156 23.36652,35.62947 54.37129,65.45785 90.72406,87.51874 v 27.04386 H 237.57399 C 210.74657,739.31189 189,760.73167 189,787.15594 189,813.58022 210.74657,835 237.57399,835 h 172.58337 c 26.8274,0 48.57398,-21.41978 48.57398,-47.84406 V 683.87498 c 0,-18.49651 -10.82228,-35.33284 -27.79403,-43.24385 C 364.90826,609.84826 322.2433,543.49812 322.2433,471.59329 c 0,-103.05849 85.12348,-186.9052 189.7567,-186.9052 104.63322,0 189.75913,83.84671 189.75913,186.9052 0,71.90244 -42.66496,138.25497 -108.69401,169.03784 -16.96932,7.9134 -27.79161,24.74973 -27.79161,43.24385 V 787.15594 C 565.27351,813.58022 587.02009,835 613.8475,835 H 786.42601 C 813.25343,835 835,813.58022 835,787.15594 c 0,-26.42427 -21.74657,-47.84405 -48.57399,-47.84405 z"
     id="path2-3"
     style="fill:#ffffff;stroke-width:2.41038179" />
</svg>
