<svg xmlns="http://www.w3.org/2000/svg" width="640" height="128">
  <path fill="#FFB734" d="M107 127.6H20.8c-11.5 0-20.9-9.4-20.9-20.9V20.5C-.1 9 9.3-.4 20.8-.4H107c11.5 0 20.9 9.4 20.9 20.9v86.2c0 11.5-9.4 20.9-20.9 20.9z"/>
  <path fill="#FFFFFF" stroke="#FFFFFF" stroke-width="1.255" stroke-miterlimit="10" opacity=".32" d="M99.8 44H83.9c-.8-6.6-7.2-9.9-19.3-9.9-12.3 0-18.4 4.5-18.4 13.4 0 3.3 1.3 6.3 3.9 8.9 2.6 2.6 8.7 3.9 18.3 3.9H74V72h-5.6c-6.4 0-11.1.4-14.1 1.2-3 .8-5.5 2.4-7.5 4.7-2 2.4-3 5.3-3 8.8 0 4.2 1.9 7.6 5.8 10.2 3.9 2.6 9.2 3.9 15.9 3.9 6.6 0 11.8-1.3 15.7-3.9 3.9-2.6 5.8-5.5 5.8-8.6h16c-.7 7-4.4 12.8-11.2 17.5-6.8 4.7-15.6 7.1-26.5 7.1-11.8 0-21-2.5-27.5-7.4S28 94.4 28 86.9c0-8.8 4.8-15.7 14.4-20.5.6-.3.6-1.2 0-1.5-8.1-4-12.1-9.9-12.1-17.6 0-7.4 3.1-13.4 9.2-18.1 6.2-4.7 14.7-7 25.7-7 10.5 0 18.8 2.1 25.1 6.2 6.4 3.9 9.5 9.2 9.5 15.6z"/>
  <g stroke="#FFFFFF" fill="none">
    <path d="M100.6 46.4c0 13.8-13 25-35.5 25-17.1 0-35.5-10.2-35.5-25 0-15.1 14.9-25 35.5-25 23 0 35.5 9.6 35.5 25z"/>
    <path d="M103.6 87.1c0 13.1-14 26.1-38.2 26.1-18.4 0-37.4-11-37.4-26.5C28.1 71 43.3 61 65.4 61c24.7 0 38.2 10 38.2 26.1zm-20-39.6c0 7.3-5 12-18.6 12-10.8 0-18.2-3.4-18.2-12s6-13.1 18.2-13.1c11.8 0 18.6 2.9 18.6 13.1z"/>
    <path d="M86.9 86.2c0 7.2-6.1 13.8-21.6 13.8-12.4 0-20.8-3.8-20.8-13.2 0-9.5 6.8-14.4 20.8-14.4 13.5 0 21.6 2.5 21.6 13.8z"/>
    <path d="M74 59.9h29M74 72.5h29"/>
    <path stroke-dasharray="2,1" d="M75 65.5h28M88.5 87V44"/>
    <path stroke-width="1.673" d="M99.8 44H83.9c-.8-6.6-7.2-9.9-19.3-9.9-12.3 0-18.4 4.5-18.4 13.4 0 3.3 1.3 6.3 3.9 8.9 2.6 2.6 8.7 3.9 18.3 3.9H74V72h-5.6c-6.4 0-11.1.4-14.1 1.2-3 .8-5.5 2.4-7.5 4.7-2 2.4-3 5.3-3 8.8 0 4.2 1.9 7.6 5.8 10.2 3.9 2.6 9.2 3.9 15.9 3.9 6.6 0 11.8-1.3 15.7-3.9 3.9-2.6 5.8-5.5 5.8-8.6h16c-.7 7-4.4 12.8-11.2 17.5-6.8 4.7-15.6 7.1-26.5 7.1-11.8 0-21-2.5-27.5-7.4S28 94.4 28 86.9c0-8.8 4.8-15.7 14.4-20.5.6-.3.6-1.2 0-1.5-8.1-4-12.1-9.9-12.1-17.6 0-7.4 3.1-13.4 9.2-18.1 6.2-4.7 14.7-7 25.7-7 10.5 0 18.8 2.1 25.1 6.2 6.4 3.9 9.5 9.2 9.5 15.6z"/>
  </g>
  <path d="M172.2 27.7h40.9v4.5h-35.7v28.2h29.9V65h-29.9v32.9h36.9v4.5h-42.1V27.7zm62.9 79.5V127h-5V48h4.3l.5 6.8h.3c5.3-4.2 11.8-8.2 18.5-8.2 14.5 0 21.8 10.9 21.8 27.8 0 18.5-11.2 29.4-24 29.4-5.1 0-10.7-2.5-16.3-6.7v10.1zm16.1-7.9c11 0 18.9-10.2 18.9-24.9 0-13.4-4.8-23.4-17.2-23.4-5.4 0-11.2 3.2-17.8 9v32.3c6.2 5.1 11.9 7 16.1 7zm36.7-6.8c4.6 3.9 9.5 6.9 17.4 6.9 8.5 0 12.9-5 12.9-10.8 0-6.8-7-9.8-13.3-12-8.3-2.9-17.4-6.2-17.4-15.5 0-7.9 6.2-14.5 17.6-14.5 5.8 0 11.6 2.4 15.5 5.7l-2.7 3.5c-3.6-2.7-7.5-4.9-13-4.9-8.4 0-12.2 4.9-12.2 9.9 0 6.2 6.4 8.6 12.8 11 8.5 3.2 17.8 6 17.8 16.7 0 8.2-6.6 15.3-18.4 15.3-8.1 0-15.1-3.4-20-7.5l3-3.8zm47.9-62.1c0-2.8 2-4.5 4.5-4.5s4.5 1.7 4.5 4.5c0 2.6-2 4.4-4.5 4.4s-4.5-1.8-4.5-4.4zm1.9 17.6h5v54.4h-5V48zm26-27.1h5v75c0 2.4 1 3.5 2.4 3.5.5 0 .9 0 2-.2l.9 4.1c-1 .3-2 .6-3.6.6-4.4 0-6.7-2.7-6.7-8.6V20.9zm46.7 25.7c13.2 0 24.5 10.4 24.5 28.7 0 18-11.3 28.5-24.5 28.5-13 0-24.4-10.4-24.4-28.5 0-18.3 11.3-28.7 24.4-28.7zm0 52.7c11 0 19.3-9.8 19.3-24 0-14.4-8.3-24.3-19.3-24.3s-19.2 9.9-19.2 24.3c0 14.3 8.2 24 19.2 24zM451.2 48h4.3l.5 8.4h.3c5.6-5.6 11.2-9.8 18.7-9.8 11.2 0 16.4 6.8 16.4 20.9v34.9h-5V68.1c0-11.6-3.6-17-12.5-17-6.5 0-11.1 3.4-17.8 10.2v41.1h-5V48z"/>
</svg>
