<svg id="Calque_1" xmlns="http://www.w3.org/2000/svg" viewBox="0 0 248 205">
    <style>
        .st0{fill:none;stroke:#000;stroke-width:.5;stroke-linecap:round;stroke-linejoin:round;stroke-miterlimit:10}.st1{fill:#f2f2f2}.st2{fill:gray}.st3{fill:#ccc}.st4{fill:#fff}.st5{fill:none;stroke:#ffb734;stroke-miterlimit:10}.st6{fill:#ffb734}.st7{fill:none;stroke:#ffb734;stroke-linecap:round;stroke-linejoin:round}.st8,.st9{fill:none;stroke:gray;stroke-width:3;stroke-miterlimit:10}.st9{stroke:#000;stroke-width:2}.st10{fill:none;stroke:#a3b3ce;stroke-linecap:round;stroke-linejoin:round}.st11{fill:#a3b3ce}.st12,.st13{stroke-miterlimit:10}.st12{fill:none;stroke-linecap:square;stroke:#ffb734}.st13{stroke:#000}.st13,.st14{fill:none}.st15{font-family:&apos;SourceSansPro-Light&apos;}.st16{font-size:36.6915px}.st17{fill:none;stroke:#000;stroke-width:2;stroke-miterlimit:10;stroke-dasharray:4,2}
    </style>
    <path class="st0" d="M29 75.9h55.9V158H29zM139.9 27.9H243v174.7H139.9z"/>
    <path class="st12" d="M29 77v39.8"/>
    <path class="st6" d="M24.9 80.3l.7.7 3.4-3.6 3.3 3.6.8-.7-4.1-4.4zM24.9 113.5l.7-.7 3.4 3.6 3.3-3.6.8.7-4.1 4.4z"/>
    <path class="st14" d="M48.2 122.2h31.4v33.3H48.2z"/>
    <text transform="translate(48.187 148.54)" class="st15 st16">
        2
    </text>
    <path class="st14" d="M48.2 80.2h31.4v33.3H48.2z"/>
    <text transform="translate(48.187 106.606)" class="st15 st16">
        1
    </text>
    <path class="st14" d="M100.6 101.2H132v33.3h-31.4z"/>
    <text transform="translate(100.603 127.573)" class="st15 st16">
        +
    </text>
    <path class="st13" d="M39.4 117h36.7M153 117h76.9"/>
    <path class="st6" d="M114.3 7.8h2.6c2 0 3.2.7 3.2 2.4 0 1-.6 1.8-1.7 2.1v.1c1.4.2 2.3 1 2.3 2.3 0 1.9-1.4 2.8-3.6 2.8h-2.8V7.8zm2.3 4.3c2 0 2.8-.6 2.8-1.9 0-1.2-.9-1.8-2.7-1.8H115v3.7h1.6zm.3 4.9c1.9 0 3.1-.7 3.1-2.3 0-1.4-1.1-2.1-3.1-2.1h-2V17h2zM126.8 13.1c0-1.1-.3-2.2-1.7-2.2-1 0-1.8.5-2.3.8l-.3-.5c.5-.4 1.5-.9 2.6-.9 1.7 0 2.2 1.2 2.2 2.7v4.5h-.5l-.1-.9c-.7.6-1.6 1.1-2.5 1.1-1.1 0-2.1-.6-2.1-1.9.2-1.6 1.6-2.4 4.7-2.7zm-2.4 4c.8 0 1.5-.4 2.4-1.1v-2.4c-2.9.3-3.9 1-3.9 2.1.1 1 .7 1.4 1.5 1.4zM129.5 16.2c.6.5 1.2.9 2.3.9 1.1 0 1.7-.6 1.7-1.4 0-.9-.9-1.3-1.7-1.6-1.1-.4-2.2-.8-2.2-2 0-1 .8-1.9 2.3-1.9.7 0 1.5.3 2 .7l-.4.5c-.5-.4-1-.6-1.7-.6-1.1 0-1.6.6-1.6 1.3 0 .8.8 1.1 1.7 1.4 1.1.4 2.3.8 2.3 2.2 0 1.1-.9 2-2.4 2-1 0-2-.4-2.6-1l.3-.5zM138.5 10.3c1.7 0 2.7 1.2 2.7 3.3v.5H136c0 1.8 1.1 3.1 2.7 3.1.8 0 1.4-.2 1.9-.6l.3.5c-.6.3-1.2.7-2.2.7-1.8 0-3.3-1.4-3.3-3.7s1.5-3.8 3.1-3.8zm2 3.3c0-1.8-.8-2.7-2.1-2.7-1.2 0-2.3 1-2.4 2.7h4.5zM143.1 6.9h.6v9.7c0 .3.1.5.3.5h.3l.1.5c-.1 0-.3.1-.5.1-.6 0-.9-.4-.9-1.1V6.9zM146.3 8.2c0-.4.3-.6.6-.6s.6.2.6.6c0 .3-.3.6-.6.6s-.6-.3-.6-.6zm.3 2.3h.6v7.1h-.6v-7.1zM149.9 10.5h.6l.1 1.1c.7-.7 1.5-1.3 2.4-1.3 1.5 0 2.1.9 2.1 2.7v4.5h-.6v-4.4c0-1.5-.5-2.2-1.6-2.2-.8 0-1.4.4-2.3 1.3v5.3h-.6v-7zM160.2 10.3c1.7 0 2.7 1.2 2.7 3.3v.5h-5.1c0 1.8 1.1 3.1 2.7 3.1.8 0 1.4-.2 1.9-.6l.3.5c-.6.3-1.2.7-2.2.7-1.8 0-3.3-1.4-3.3-3.7s1.5-3.8 3-3.8zm2.1 3.3c0-1.8-.8-2.7-2.1-2.7-1.2 0-2.3 1-2.4 2.7h4.5zM4.3 53.8h2.6c2 0 3.2.7 3.2 2.4 0 1-.6 1.8-1.7 2.1v.1c1.4.2 2.3 1 2.3 2.3 0 1.9-1.4 2.8-3.6 2.8H4.3v-9.7zm2.3 4.3c2 0 2.8-.6 2.8-1.9 0-1.2-.9-1.8-2.7-1.8H4.9v3.7h1.7zm.3 4.9c1.9 0 3.1-.7 3.1-2.3 0-1.4-1.1-2.1-3.1-2.1h-2V63h2zM16.8 59.1c0-1.1-.3-2.2-1.7-2.2-1 0-1.8.5-2.3.8l-.3-.5c.5-.4 1.5-.9 2.6-.9 1.7 0 2.2 1.2 2.2 2.7v4.5h-.5l-.1-.9c-.7.6-1.6 1.1-2.5 1.1-1.1 0-2.1-.6-2.1-1.9.2-1.6 1.6-2.4 4.7-2.7zm-2.4 4c.8 0 1.5-.4 2.4-1.1v-2.4c-2.9.3-3.9 1-3.9 2.1.1 1 .7 1.4 1.5 1.4zM19.5 62.2c.6.5 1.2.9 2.3.9 1.1 0 1.7-.6 1.7-1.4 0-.9-.9-1.3-1.7-1.6-1.1-.4-2.2-.8-2.2-2 0-1 .8-1.9 2.3-1.9.7 0 1.5.3 2 .7l-.4.5c-.5-.4-1-.6-1.7-.6-1.1 0-1.6.6-1.6 1.3 0 .8.8 1.1 1.7 1.4 1.1.4 2.3.8 2.3 2.2 0 1.1-.9 2-2.4 2-1 0-2-.4-2.6-1l.3-.5zM28.5 56.3c1.7 0 2.7 1.2 2.7 3.3v.5H26c0 1.8 1.1 3.1 2.7 3.1.8 0 1.4-.2 1.9-.6l.3.5c-.6.3-1.2.7-2.2.7-1.8 0-3.3-1.4-3.3-3.7s1.5-3.8 3.1-3.8zm2 3.3c0-1.8-.8-2.7-2.1-2.7-1.2 0-2.3 1-2.4 2.7h4.5zM33.1 52.9h.6v9.7c0 .3.1.5.3.5h.3l.1.5c-.1 0-.3.1-.5.1-.6 0-.9-.4-.9-1.1v-9.7zM36.3 54.2c0-.4.3-.6.6-.6s.6.2.6.6c0 .3-.3.6-.6.6s-.6-.3-.6-.6zm.3 2.3h.6v7.1h-.6v-7.1zM39.9 56.5h.6l.1 1.1c.7-.7 1.5-1.3 2.4-1.3 1.5 0 2.1.9 2.1 2.7v4.5h-.6v-4.4c0-1.5-.5-2.2-1.6-2.2-.8 0-1.4.4-2.3 1.3v5.3H40v-7zM50.2 56.3c1.7 0 2.7 1.2 2.7 3.3v.5h-5.1c0 1.8 1.1 3.1 2.7 3.1.8 0 1.4-.2 1.9-.6l.3.5c-.6.3-1.2.7-2.2.7-1.8 0-3.3-1.4-3.3-3.7s1.5-3.8 3-3.8zm2.1 3.3c0-1.8-.8-2.7-2.1-2.7-1.2 0-2.3 1-2.4 2.7h4.5z"/>
    <path class="st14" d="M182.7 78.5h31.4v33.3h-31.4z"/>
    <text transform="translate(182.722 104.859)" class="st15 st16">
        2
    </text>
    <path class="st14" d="M182.7 36.5h31.4v33.3h-31.4z"/>
    <text transform="translate(182.722 62.926)" class="st15 st16">
        1
    </text>
    <path class="st13" d="M172.2 73.3h36.7"/>
    <path class="st14" d="M182.7 167.6h31.4v33.3h-31.4z"/>
    <text transform="translate(182.722 193.967)" class="st15 st16">
        4
    </text>
    <path class="st14" d="M182.7 125.7h31.4V159h-31.4z"/>
    <text transform="translate(182.722 152.034)" class="st15 st16">
        3
    </text>
    <path class="st13" d="M172.2 162.4h36.7"/>
    <path class="st12" d="M23.7 75.9h10.5M22.9 117h12.2"/>
    <g>
        <path class="st12" d="M139.9 28.1v88.7"/>
        <path class="st6" d="M135.8 31.4l.8.7 3.3-3.6 3.4 3.6.7-.7-4.1-4.4zM135.8 113.5l.8-.7 3.3 3.6 3.4-3.6.7.7-4.1 4.3z"/>
    </g>
    <path class="st12" d="M134.7 27.9h10.5M133.8 117H146"/>
</svg>
