<svg id="Calque_1" xmlns="http://www.w3.org/2000/svg" viewBox="0 0 960 361">
    <style>
        .st0{fill:none;stroke:#000;stroke-width:.5;stroke-linecap:round;stroke-linejoin:round;stroke-miterlimit:10}.st1{fill:#f2f2f2}.st2{fill:gray}.st3{fill:#ccc}.st4{fill:#fff}.st5{fill:none;stroke:#ffb734;stroke-miterlimit:10}.st6{fill:#ffb734}.st7{fill:none;stroke:#ffb734;stroke-linecap:round;stroke-linejoin:round}.st8{stroke:gray;stroke-width:3;stroke-miterlimit:10}.st8,.st9{fill:none}.st10{font-family:&apos;SourceSansPro-Light&apos;}.st11{font-size:21px}.st12{font-family:&apos;SourceSansPro-Regular&apos;}.st13{font-size:20px}.st14{font-family:&apos;SourceCodePro-Medium&apos;}.st15{font-size:18px}.st16{fill:none;stroke:#000;stroke-width:2;stroke-miterlimit:10}.st17{fill:none;stroke:#a3b3ce;stroke-linecap:round;stroke-linejoin:round}.st18{fill:#a3b3ce}.st19,.st20,.st21{fill:none;stroke-miterlimit:10}.st19{stroke-linecap:square;stroke:#ffb734}.st20,.st21{stroke:#000}.st21{stroke-width:2;stroke-dasharray:4,2}
    </style>
    <path class="st1" d="M190 181.8h140.4V247H190z"/>
    <path class="st3" d="M190 181.8h140.4v31.7H190z"/>
    <path class="st9" d="M190 190h140v19.3H190z"/>
    <text transform="translate(201.422 205.061)" class="st10 st11">
        Multiplication
    </text>
    <path class="st2" d="M0 0h392.5v33.5H0z"/>
    <path class="st1" d="M106 68.8h95V133h-95z"/>
    <path class="st3" d="M106 68.8h95v31.7h-95z"/>
    <path class="st9" d="M83 77h142v15.4H83z"/>
    <text transform="translate(117.765 92.062)" class="st10 st11">
        Addition
    </text>
    <path class="st1" d="M0 180.8h90V246H0z"/>
    <path class="st9" d="M-16 223.2h123v23.3H-16z"/>
    <text transform="translate(40.53 237.395)" class="st12 st13">
        1
    </text>
    <path class="st3" d="M0 180.8h90v31.7H0z"/>
    <path class="st9" d="M-16 190h121v19H-16z"/>
    <text transform="translate(8.77 205.061)" class="st10 st11">
        Rational
    </text>
    <path class="st1" d="M129 294.8h90V360h-90z"/>
    <path class="st9" d="M113 337.2h123v23.3H113z"/>
    <text transform="translate(166.42 351.396)" class="st12 st13">
        -1
    </text>
    <path class="st3" d="M129 294.8h90v31.7h-90z"/>
    <path class="st9" d="M113 304h121v19H113z"/>
    <text transform="translate(137.77 319.061)" class="st10 st11">
        Rational
    </text>
    <path class="st9" d="M0 10h393v19H0z"/>
    <text transform="translate(131.701 22.725)" class="st4 st14 st15">
        1 + (-1) × π
    </text>
    <path class="st2" d="M570 0h392.5v33.5H570z"/>
    <path class="st9" d="M570 11h385v19H570z"/>
    <text transform="translate(735.5 23.725)" class="st4 st14 st15">
        1 - π
    </text>
    <path class="st1" d="M302 295.8h90V361h-90z"/>
    <path class="st9" d="M302 337.2h89v23.3h-89z"/>
    <text transform="translate(340.89 351.395)" class="st12 st13">
        π
    </text>
    <path class="st3" d="M302 295.8h90v31.7h-90z"/>
    <path class="st9" d="M286 305h121v19H286z"/>
    <text transform="translate(314.108 320.061)" class="st10 st11">
        Symbol
    </text>
    <path class="st5" d="M172.5 118.5l74 54.7"/>
    <path class="st6" d="M241.4 174.5l-.1-1 4.9-.6-1-4.8 1-.2 1.1 5.9z"/>
    <path class="st5" d="M279.5 228.5l78 57.7"/>
    <path class="st6" d="M352.4 287.5l-.1-1 4.9-.6-1-4.8 1-.2 1.1 5.9z"/>
    <path class="st5" d="M127.5 118.5l-69.8 52.7"/>
    <path class="st6" d="M57.9 165.9l1 .2-.9 4.8 4.9.5-.1 1-6-.6z"/>
    <path class="st5" d="M239.5 228.5l-77.8 58.7"/>
    <path class="st6" d="M161.9 281.9l1 .2-.9 4.8 4.9.5-.1 1-6-.6z"/>
    <path class="st1" d="M711 68.8h117V134H711z"/>
    <path class="st3" d="M711 68.8h117v31.7H711z"/>
    <path class="st9" d="M711 78h117v19H711z"/>
    <text transform="translate(719.321 93.061)" class="st10 st11">
        Subtraction
    </text>
    <path class="st1" d="M570 181.8h90V247h-90z"/>
    <path class="st9" d="M570 224.2h90v23.3h-90z"/>
    <text transform="translate(610.03 238.395)" class="st12 st13">
        1
    </text>
    <path class="st3" d="M570 181.8h90v31.7h-90z"/>
    <path class="st9" d="M570 191h90v19h-90z"/>
    <text transform="translate(579.269 206.061)" class="st10 st11">
        Rational
    </text>
    <path class="st1" d="M870 181.8h90V247h-90z"/>
    <path class="st9" d="M872 223.2h90v23.3h-90z"/>
    <text transform="translate(911.39 237.395)" class="st12 st13">
        π
    </text>
    <path class="st3" d="M870 181.8h90v31.7h-90z"/>
    <path class="st9" d="M870 191h90v19h-90z"/>
    <text transform="translate(882.608 206.061)" class="st10 st11">
        Symbol
    </text>
    <g>
        <path class="st7" d="M786.5 117.5l74 54.7"/>
        <path class="st6" d="M855.4 173.5l-.1-1 4.9-.6-1-4.8 1-.2 1.1 5.9z"/>
    </g>
    <g>
        <path class="st7" d="M744.5 117.5l-72.8 54.7"/>
        <path class="st6" d="M671.9 166.9l1 .2-.9 4.8 4.9.5-.1 1-6-.6z"/>
    </g>
    <g>
        <path class="st8" d="M425 19.5h119.6"/>
        <path class="st2" d="M538.6 24.6l5.1-5.1-5.1-5.1h4.3l5.1 5.1-5.1 5.1z"/>
    </g>
</svg>
