<svg id="Calque_1" xmlns="http://www.w3.org/2000/svg" viewBox="0 0 392 359">
    <style>
        .st0{fill:none;stroke:#000;stroke-width:.5;stroke-linecap:round;stroke-linejoin:round;stroke-miterlimit:10}.st1{fill:#f2f2f2}.st2{fill:gray}.st3{fill:#ccc}.st4{fill:#fff}.st5{fill:none;stroke:#ffb734;stroke-miterlimit:10}.st6{fill:#ffb734}.st7{fill:none}.st8{font-family:&apos;SourceSansPro-Light&apos;}.st9{font-size:21px}.st10{font-family:&apos;SourceSansPro-Regular&apos;}.st11{font-size:20px}.st12{font-size:48px}.st13{font-family:&apos;SourceCodePro-Medium&apos;}.st14{font-size:18px}.st15{fill:none;stroke:#ffb734;stroke-linecap:round;stroke-linejoin:round}.st16,.st17{fill:none;stroke:gray;stroke-width:3;stroke-miterlimit:10}.st17{stroke:#000;stroke-width:2}.st18{fill:none;stroke:#a3b3ce;stroke-linecap:round;stroke-linejoin:round}.st19{fill:#a3b3ce}.st20,.st21,.st22{fill:none;stroke-miterlimit:10}.st20{stroke-linecap:square;stroke:#ffb734}.st21,.st22{stroke:#000}.st22{stroke-width:2;stroke-dasharray:4,2}
    </style>
    <path class="st2" d="M0 0h392.5v32.5H0z"/>
    <path class="st1" d="M106 67.8h95V132h-95z"/>
    <path class="st3" d="M106 67.8h95v31.7h-95z"/>
    <path class="st7" d="M83 76h142v15.4H83z"/>
    <text transform="translate(117.765 91.062)" class="st8 st9">
        Addition
    </text>
    <path class="st1" d="M0 179.8h90V245H0z"/>
    <path class="st7" d="M0 222.2h90v23.3H0z"/>
    <text transform="translate(40.03 236.395)" class="st10 st11">
        1
    </text>
    <path class="st3" d="M0 179.8h90v31.7H0z"/>
    <path class="st7" d="M0 189h90v19H0z"/>
    <text transform="translate(9.269 204.061)" class="st8 st9">
        Rational
    </text>
    <path class="st7" d="M0 9h392v19H0z"/>
    <text transform="translate(147.4 21.725)" class="st4 st13 st14">
        1 + 2 × 3
    </text>
    <path class="st1" d="M126 294.8h90V360h-90z"/>
    <path class="st7" d="M126 336.2h90v23.3h-90z"/>
    <text transform="translate(166.03 350.396)" class="st10 st11">
        2
    </text>
    <path class="st3" d="M126 294.8h90v31.7h-90z"/>
    <path class="st7" d="M126 304h90v19h-90z"/>
    <text transform="translate(135.269 319.061)" class="st8 st9">
        Rational
    </text>
    <path class="st1" d="M302 294.8h90V360h-90z"/>
    <path class="st7" d="M302 336.2h90v23.3h-90z"/>
    <text transform="translate(342.03 350.396)" class="st10 st11">
        3
    </text>
    <path class="st3" d="M302 294.8h90v31.7h-90z"/>
    <path class="st7" d="M302 304h90v19h-90z"/>
    <text transform="translate(311.269 319.061)" class="st8 st9">
        Rational
    </text>
    <path class="st1" d="M188 179.8h140.4V245H188z"/>
    <path class="st3" d="M188 179.8h140.4v31.7H188z"/>
    <path class="st7" d="M188 188h140v19.3H188z"/>
    <text transform="translate(199.422 203.061)" class="st8 st9">
        Multiplication
    </text>
    <path class="st5" d="M167.5 112.5l78.1 57.4"/>
    <path class="st6" d="M240.5 171.2l-.1-1 4.9-.6-.9-4.8 1-.2 1.1 5.9z"/>
    <path class="st5" d="M278.5 228.5l77 57.7"/>
    <path class="st6" d="M350.4 287.4l-.1-1 4.9-.5-.9-4.8 1-.2 1 5.9z"/>
    <g>
        <path class="st5" d="M136.5 112.5l-76.8 57.4"/>
        <path class="st6" d="M59.9 164.6l1 .2-.9 4.8 4.9.5-.1 1-6-.6z"/>
    </g>
    <g>
        <path class="st5" d="M239.5 228.5l-76.8 57.7"/>
        <path class="st6" d="M162.9 280.9l1 .2-.9 4.8 4.9.5-.1 1-6-.6z"/>
    </g>
</svg>
