<svg id="Calque_1" xmlns="http://www.w3.org/2000/svg" viewBox="0 0 808 179">
    <style>
        .st0{fill:none;stroke:#000;stroke-width:.5;stroke-linecap:round;stroke-linejoin:round;stroke-miterlimit:10}.st1{fill:#f2f2f2}.st2{fill:gray}.st3{fill:#ccc}.st4{fill:#fff}.st5{fill:none;stroke:#ffb734;stroke-miterlimit:10}.st6{fill:#ffb734}.st7{stroke:#ffb734;stroke-linecap:round;stroke-linejoin:round}.st7,.st8{fill:none}.st9{font-family:&apos;SourceSansPro-Light&apos;}.st10{font-size:21px}.st11{font-family:&apos;SourceSansPro-Regular&apos;}.st12{font-size:20px}.st13,.st14{fill:none;stroke:gray;stroke-width:3;stroke-miterlimit:10}.st14{stroke:#000;stroke-width:2}.st15{fill:none;stroke:#a3b3ce;stroke-linecap:round;stroke-linejoin:round}.st16{fill:#a3b3ce}.st17,.st18,.st19{fill:none;stroke-miterlimit:10}.st17{stroke-linecap:square;stroke:#ffb734}.st18,.st19{stroke:#000}.st19{stroke-width:2;stroke-dasharray:4,2}
    </style>
    <path class="st1" d="M101 .8h117V66H101z"/>
    <path class="st3" d="M101 .8h117v31.7H101z"/>
    <path class="st8" d="M99 10h121v19H99z"/>
    <text transform="translate(123.265 25.061)" class="st9 st10">
        Addition
    </text>
    <path class="st1" d="M0 112.8h90V178H0z"/>
    <path class="st8" d="M0 155.2h90v23.3H0z"/>
    <text transform="translate(40.03 169.395)" class="st11 st12">
        3
    </text>
    <path class="st3" d="M0 112.8h90v31.7H0z"/>
    <path class="st8" d="M0 122h90v19H0z"/>
    <text transform="translate(9.269 137.061)" class="st9 st10">
        Rational
    </text>
    <path class="st1" d="M224 112.8h90V178h-90z"/>
    <path class="st8" d="M224 154.2h90v23.3h-90z"/>
    <text transform="translate(263.39 168.395)" class="st11 st12">
        π
    </text>
    <path class="st3" d="M224 112.8h90v31.7h-90z"/>
    <path class="st8" d="M224 122h90v19h-90z"/>
    <text transform="translate(236.608 137.061)" class="st9 st10">
        Symbol
    </text>
    <path class="st7" d="M181.5 49.5l74 54.7"/>
    <path class="st6" d="M250.4 105.5l-.1-1 4.9-.6-1-4.8 1-.2 1.1 5.9z"/>
    <path class="st7" d="M139.5 49.5l-72.8 54.7"/>
    <path class="st6" d="M66.9 98.9l1 .2-.9 4.8 4.9.5-.1 1-6-.6z"/>
    <path class="st1" d="M595 .8h117V66H595z"/>
    <path class="st3" d="M595 .8h117v31.7H595z"/>
    <path class="st8" d="M593 10h121v19H593z"/>
    <text transform="translate(617.265 25.061)" class="st9 st10">
        Addition
    </text>
    <path class="st1" d="M494 112.8h90V178h-90z"/>
    <path class="st8" d="M494 155.2h90v23.3h-90z"/>
    <text transform="translate(534.03 169.395)" class="st11 st12">
        2
    </text>
    <path class="st3" d="M494 112.8h90v31.7h-90z"/>
    <path class="st8" d="M478 122h121v19H478z"/>
    <text transform="translate(502.77 137.061)" class="st9 st10">
        Rational
    </text>
    <path class="st1" d="M718 112.8h90V178h-90z"/>
    <path class="st8" d="M718 154.2h90v23.3h-90z"/>
    <text transform="translate(757.39 168.395)" class="st11 st12">
        π
    </text>
    <path class="st3" d="M718 112.8h90v31.7h-90z"/>
    <path class="st8" d="M702 122h121v19H702z"/>
    <text transform="translate(730.108 137.061)" class="st9 st10">
        Symbol
    </text>
    <path class="st7" d="M675.5 49.5l74 54.7"/>
    <path class="st6" d="M744.4 105.5l-.1-1 4.9-.6-1-4.8 1-.2 1.1 5.9z"/>
    <g>
        <path class="st7" d="M633.5 49.5l-72.8 54.7"/>
        <path class="st6" d="M560.9 98.9l1 .2-.9 4.8 4.9.5-.1 1-6-.6z"/>
    </g>
    <path class="st13" d="M386 56.5l35.5 31.4-35.1 33.6"/>
</svg>
