<svg id="Calque_1" xmlns="http://www.w3.org/2000/svg" viewBox="0 0 961 480">
    <style>
        .st0{fill:none;stroke:#000;stroke-width:.5;stroke-linecap:round;stroke-linejoin:round;stroke-miterlimit:10}.st1{fill:#f2f2f2}.st2{fill:gray}.st3{fill:#ccc}.st4{fill:#fff}.st5{fill:none;stroke:#ffb734;stroke-miterlimit:10}.st6{fill:#ffb734}.st7{fill:none;stroke:#ffb734;stroke-linecap:round;stroke-linejoin:round}.st8{stroke:gray;stroke-width:3;stroke-miterlimit:10}.st8,.st9{fill:none}.st10{font-family:&apos;SourceSansPro-Light&apos;}.st11{font-size:21px}.st12{font-family:&apos;SourceCodePro-Medium&apos;}.st13{font-size:18px}.st14{font-family:&apos;SourceSansPro-Regular&apos;}.st15{font-size:20px}.st16{fill:none;stroke:#000;stroke-width:2;stroke-miterlimit:10}.st17{fill:none;stroke:#a3b3ce;stroke-linecap:round;stroke-linejoin:round}.st18{fill:#a3b3ce}.st19,.st20,.st21{fill:none;stroke-miterlimit:10}.st19{stroke-linecap:square;stroke:#ffb734}.st20,.st21{stroke:#000}.st21{stroke-width:2;stroke-dasharray:4,2}
    </style>
    <path class="st2" d="M0 0h392.5v33.5H0z"/>
    <path class="st1" d="M189 69.8h95V134h-95z"/>
    <path class="st3" d="M189 69.8h95v31.7h-95z"/>
    <path class="st9" d="M166 78h142v15.4H166z"/>
    <text transform="translate(200.765 93.062)" class="st10 st11">
        Addition
    </text>
    <path class="st1" d="M72 181.8h117V247H72z"/>
    <path class="st3" d="M72 181.8h117v31.7H72z"/>
    <path class="st9" d="M70 191h121v19H70z"/>
    <text transform="translate(80.322 206.061)" class="st10 st11">
        Subtraction
    </text>
    <path class="st9" d="M0 11h392v19H0z"/>
    <text transform="translate(152.8 23.725)" class="st4 st12 st13">
        1 - 2π+π
    </text>
    <path class="st1" d="M302 181.8h90V247h-90z"/>
    <path class="st9" d="M302 223.2h89v23.3h-89z"/>
    <text transform="translate(340.89 237.395)" class="st14 st15">
        π
    </text>
    <path class="st3" d="M302 181.8h90v31.7h-90z"/>
    <path class="st9" d="M286 191h121v19H286z"/>
    <text transform="translate(314.108 206.061)" class="st10 st11">
        Symbol
    </text>
    <path class="st1" d="M302 414.8h90V480h-90z"/>
    <path class="st9" d="M302 456.2h89v23.3h-89z"/>
    <text transform="translate(340.89 470.395)" class="st14 st15">
        π
    </text>
    <path class="st3" d="M302 414.8h90v31.7h-90z"/>
    <path class="st9" d="M286 424h121v19H286z"/>
    <text transform="translate(314.108 439.061)" class="st10 st11">
        Symbol
    </text>
    <path class="st5" d="M256.5 117.5l74 54.7"/>
    <path class="st6" d="M325.4 173.5l-.1-1 4.9-.6-1-4.8 1-.2 1.1 5.9z"/>
    <path class="st5" d="M150.5 229.5l78 57.7"/>
    <path class="st6" d="M223.4 288.5l-.1-1 4.9-.6-1-4.8 1-.2 1.1 5.9z"/>
    <path class="st5" d="M211.5 117.5l-69.8 52.7"/>
    <path class="st6" d="M141.9 164.9l1 .2-.9 4.8 4.9.5-.1 1-6-.6z"/>
    <path class="st5" d="M110.5 229.5l-77.8 58.7"/>
    <path class="st6" d="M32.9 282.9l1 .2-.9 4.8 4.9.5-.1 1-6-.6z"/>
    <path class="st1" d="M0 296.8h90V362H0z"/>
    <path class="st9" d="M0 339.2h90v23.3H0z"/>
    <text transform="translate(40.03 353.396)" class="st14 st15">
        1
    </text>
    <path class="st3" d="M0 296.8h90v31.7H0z"/>
    <path class="st9" d="M-16 306h121v19H-16z"/>
    <text transform="translate(8.77 321.061)" class="st10 st11">
        Rational
    </text>
    <path class="st1" d="M86 414.8h90V480H86z"/>
    <path class="st9" d="M86 457.2h90v23.3H86z"/>
    <text transform="translate(126.03 471.396)" class="st14 st15">
        2
    </text>
    <path class="st3" d="M86 414.8h90v31.7H86z"/>
    <path class="st9" d="M70 424h121v19H70z"/>
    <text transform="translate(94.77 439.061)" class="st10 st11">
        Rational
    </text>
    <path class="st1" d="M167 296.8h140.4V362H167z"/>
    <path class="st3" d="M167 296.8h140.4v31.7H167z"/>
    <path class="st9" d="M167 305h140v19.3H167z"/>
    <text transform="translate(178.422 320.061)" class="st10 st11">
        Multiplication
    </text>
    <path class="st1" d="M747 182.8h140.4V248H747z"/>
    <path class="st3" d="M747 182.8h140.4v31.7H747z"/>
    <path class="st9" d="M747 191h140v19.3H747z"/>
    <text transform="translate(758.422 206.061)" class="st10 st11">
        Multiplication
    </text>
    <path class="st5" d="M258.5 345.5l78 57.7"/>
    <path class="st6" d="M331.4 404.5l-.1-1 4.9-.6-1-4.8 1-.2 1.1 5.9z"/>
    <path class="st5" d="M214.5 345.5l-77.8 58.7"/>
    <path class="st6" d="M136.9 398.9l1 .2-.9 4.8 4.9.5-.1 1-6-.6z"/>
    <path class="st2" d="M559 0h402v33.5H559z"/>
    <path class="st1" d="M663 69.8h95V134h-95z"/>
    <path class="st3" d="M663 69.8h95v31.7h-95z"/>
    <path class="st9" d="M640 78h142v15.4H640z"/>
    <text transform="translate(674.765 93.062)" class="st10 st11">
        Addition
    </text>
    <path class="st1" d="M560 181.8h90V247h-90z"/>
    <path class="st9" d="M559 224.2h92v23.3h-92z"/>
    <text transform="translate(600.03 238.395)" class="st14 st15">
        1
    </text>
    <path class="st3" d="M560 181.8h90v31.7h-90z"/>
    <path class="st9" d="M544 191h121v19H544z"/>
    <text transform="translate(568.77 206.061)" class="st10 st11">
        Rational
    </text>
    <path class="st1" d="M665 295.8h90V361h-90z"/>
    <path class="st9" d="M665 338.2h90v23.3h-90z"/>
    <text transform="translate(701.92 352.396)" class="st14 st15">
        -1
    </text>
    <path class="st3" d="M665 295.8h90v31.7h-90z"/>
    <path class="st9" d="M649 305h121v19H649z"/>
    <text transform="translate(673.77 320.061)" class="st10 st11">
        Rational
    </text>
    <path class="st9" d="M560 11h401v19H560z"/>
    <text transform="translate(695.701 23.725)" class="st4 st12 st13">
        1 + (-1) × π
    </text>
    <path class="st1" d="M872 296.8h90V362h-90z"/>
    <path class="st9" d="M872 338.2h89v23.3h-89z"/>
    <text transform="translate(910.89 352.395)" class="st14 st15">
        π
    </text>
    <path class="st3" d="M872 296.8h90v31.7h-90z"/>
    <path class="st9" d="M856 306h121v19H856z"/>
    <text transform="translate(884.108 321.061)" class="st10 st11">
        Symbol
    </text>
    <g>
        <path class="st5" d="M729.5 119.5l74 54.7"/>
        <path class="st6" d="M798.4 175.5l-.1-1 4.9-.6-1-4.8 1-.2 1.1 5.9z"/>
    </g>
    <g>
        <path class="st5" d="M835.5 229.5l78 57.7"/>
        <path class="st6" d="M908.4 288.5l-.1-1 4.9-.6-1-4.8 1-.2 1.1 5.9z"/>
    </g>
    <g>
        <path class="st5" d="M684.5 119.5l-69.8 52.7"/>
        <path class="st6" d="M614.9 166.9l1 .2-.9 4.8 4.9.5-.1 1-6-.6z"/>
    </g>
    <g>
        <path class="st5" d="M795.5 229.5l-77.8 58.7"/>
        <path class="st6" d="M717.9 282.9l1 .2-.9 4.8 4.9.5-.1 1-6-.6z"/>
    </g>
    <g>
        <path class="st8" d="M414 17.5h119.6"/>
        <path class="st2" d="M527.6 22.6l5.1-5.1-5.1-5.1h4.3l5.1 5.1-5.1 5.1z"/>
    </g>
</svg>
