<svg xmlns="http://www.w3.org/2000/svg" xmlns:xlink="http://www.w3.org/1999/xlink" width="567.7" height="580.6" viewBox="50 50 450 480">
    <style>
        .st0{fill:#fff}.st1{fill:none}.st2{font-family:&apos;SourceSansPro-Regular&apos;}.st3{font-size:12px}.st4{fill:#f2f2f2}.st5{font-family:&apos;SourceSansPro-Light&apos;}.st6{font-size:21px}.st7,.st8{fill:none;stroke:#ffb734;stroke-width:.8;stroke-miterlimit:10}.st8{stroke-dasharray:1.9446,1.9446}.st9{fill:#ffb734}.st10,.st11{stroke-width:.8022}.st10{fill:none;stroke:#ffb734;stroke-miterlimit:10}.st11{stroke-dasharray:1.9487,1.9487}.st11,.st12,.st13,.st14{fill:none;stroke:#ffb734;stroke-miterlimit:10}.st12{stroke-width:.8022;stroke-dasharray:1.9998,1.9998}.st13,.st14{stroke-dasharray:2,2}.st14{stroke-width:.8}
    </style>
    <image width="148" height="80" xlink:href="C75050B38B4C690E.png" transform="translate(203.01 80.843)" overflow="visible" opacity=".1"/>
    <path class="st0" d="M202.6 81h141.9v73.3H202.6z"/>
    <path class="st1" d="M220 126.3h116v23.8H220z"/>
    <text transform="translate(220.012 134.867)" class="st2 st3">
        Calculation, Graph, ...
    </text>
    <path class="st4" d="M202.6 81h141.9v31.7H202.6z"/>
    <path class="st1" d="M220 90.1h116v15.4H220z"/>
    <text transform="translate(220.012 105.23)" class="st5 st6">
        APPS
    </text>
    <image width="126" height="78" xlink:href="C75050B38B4C690D.png" transform="translate(82.22 203.054)" overflow="visible" opacity=".1"/>
    <path class="st0" d="M82.3 203h119.6v71.8H82.3z"/>
    <path class="st1" d="M98.4 248.3h66.3v23.3H98.4z"/>
    <text transform="translate(98.372 256.867)" class="st2 st3">
        GUI Toolkit
    </text>
    <path class="st4" d="M82.3 203h119.6v31.7H82.3z"/>
    <path class="st1" d="M98.4 212.1h66.3v19.3H98.4z"/>
    <text transform="translate(98.372 227.228)" class="st5 st6">
        Escher
    </text>
    <image width="129" height="77" xlink:href="C75050B38B4C690A.png" transform="translate(80.824 316.754)" overflow="visible" opacity=".1"/>
    <path class="st0" d="M81 316.6h123v71.2H81z"/>
    <path class="st1" d="M98.4 361.9H204v16.3H98.4z"/>
    <text transform="translate(98.372 370.486)" class="st2 st3">
        Graphics engine
    </text>
    <path class="st4" d="M81 316.6h123v31.7H81z"/>
    <path class="st1" d="M98.4 325.7H204V345H98.4z"/>
    <text transform="translate(98.372 340.848)" class="st5 st6">
        Kandinsky
    </text>
    <image width="176" height="78" xlink:href="C75050B38B4C6905.png" transform="translate(190.822 428.656)" overflow="visible" opacity=".1"/>
    <path class="st0" d="M190.3 428h169.5v71.6H190.3z"/>
    <path class="st1" d="M207.6 473.3h147.3v20.5H207.6z"/>
    <text transform="translate(207.647 481.86)" class="st2 st3">
        Hardware abstraction Layer
    </text>
    <path class="st4" d="M190.3 428h169.5v31.7H190.3z"/>
    <path class="st1" d="M207.6 437.1h147.3v19.3H207.6z"/>
    <text transform="translate(207.647 452.222)" class="st5 st6">
        Ion
    </text>
    <image width="147" height="78" xlink:href="C75050B38B4C6907.png" transform="translate(346.237 203.338)" overflow="visible" opacity=".1"/>
    <path class="st0" d="M346.3 203h140.4v71.8H346.3z"/>
    <path class="st1" d="M363.7 248.3h112.1v20.5H363.7z"/>
    <text transform="translate(363.725 256.867)" class="st2 st3">
        Mathematical Engine
    </text>
    <path class="st4" d="M346.3 203h140.4v31.7H346.3z"/>
    <path class="st1" d="M363.7 212.1h112.1v19.3H363.7z"/>
    <text transform="translate(363.725 227.228)" class="st5 st6">
        Poincare
    </text>
    <g>
        <path class="st7" d="M195 157.2l-.9.3"/>
        <path class="st8" d="M192.3 158.3c-6 2.8-20.4 11.8-26.6 35.4"/>
        <path class="st7" d="M165.4 194.7c-.1.3-.2.6-.2 1"/>
        <path class="st9" d="M162.7 192.3l.7-.4 1.9 3.5 3.3-2.1.5.6-4.1 2.6z"/>
    </g>
    <g>
        <path class="st10" d="M354.9 157.2l.9.3"/>
        <path class="st11" d="M357.7 158.3c6 2.8 20.5 11.8 26.8 35.4"/>
        <path class="st10" d="M384.6 194.7c.1.3.2.6.2 1"/>
        <path class="st9" d="M381 193.9l.4-.6 3.4 2.1 1.8-3.5.7.3-2.2 4.3z"/>
    </g>
    <g>
        <path class="st10" d="M207.9 281.2s.3.2.7.7"/>
        <path class="st12" d="M210.1 283.2c11.3 10.6 62.3 62.3 64.8 136.7"/>
        <path class="st10" d="M275 421v1"/>
        <path class="st9" d="M271.6 419.4l.6-.5 2.8 2.8 2.5-3 .6.5-3.1 3.6z"/>
    </g>
    <g>
        <path class="st13" d="M141.8 281.2v28"/>
        <path class="st9" d="M138.6 306.6l.5-.5 2.7 2.9 2.7-2.9.6.5-3.3 3.6z"/>
    </g>
    <g>
        <path class="st14" d="M141.8 394.8l44.2 32.7"/>
        <path class="st9" d="M181.9 428.5l-.1-.8 3.9-.4-.7-3.9.8-.1.9 4.7z"/>
    </g>
</svg>
